<?xml version="1.0" standalone="no"?>
<!DOCTYPE svg PUBLIC "-//W3C//DTD SVG 20010904//EN"
 "http://www.w3.org/TR/2001/REC-SVG-20010904/DTD/svg10.dtd">
<svg version="1.0" xmlns="http://www.w3.org/2000/svg"
 width="1280.000000pt" height="1150.000000pt" viewBox="0 0 1280.000000 1150.000000"
 preserveAspectRatio="xMidYMid meet">
<metadata>
Created by potrace 1.15, written by Peter Selinger 2001-2017
</metadata>
<g transform="translate(0.000000,1150.000000) scale(0.100000,-0.100000)"
fill="#b6c9d1" stroke="none">
<path d="M4623 11479 c-64 -41 -77 -78 -83 -234 l-5 -139 -40 -28 c-22 -15
-47 -27 -57 -28 -28 0 -63 54 -87 134 l-23 77 -30 -18 c-53 -31 -69 -63 -80
-154 -19 -167 -26 -189 -79 -243 l-49 -49 0 -71 c0 -39 9 -109 19 -156 11 -50
16 -91 11 -100 -10 -18 -38 -34 -95 -54 l-40 -13 2 -68 c2 -37 18 -140 37
-229 19 -88 36 -190 38 -225 l3 -64 -48 -13 c-27 -7 -50 -14 -52 -16 -2 -2 12
-68 31 -147 19 -79 34 -153 34 -166 0 -36 -43 -63 -111 -71 -32 -4 -64 -13
-70 -20 -8 -10 -10 -42 -5 -102 19 -265 19 -276 2 -315 -42 -101 -29 -187 55
-369 l52 -111 8 -196 c11 -278 45 -494 130 -836 39 -153 54 -210 167 -620 47
-169 101 -372 117 -440 l7 -30 -33 30 c-17 17 -72 77 -121 135 -195 228 -169
208 -962 736 -1117 744 -1488 1002 -1951 1358 -357 275 -683 553 -1008 860
l-180 170 5 -45 c3 -25 22 -84 43 -130 68 -153 85 -207 85 -269 0 -32 -4 -61
-8 -64 -4 -2 -43 20 -86 49 -130 90 -172 85 -163 -17 6 -67 47 -162 107 -245
36 -51 39 -58 27 -77 -8 -12 -29 -26 -48 -33 -19 -6 -33 -15 -32 -20 23 -83
163 -469 192 -530 66 -138 144 -237 243 -310 46 -33 48 -37 35 -57 -8 -11 -41
-31 -73 -42 -69 -25 -76 -41 -48 -112 12 -32 49 -79 119 -151 123 -128 134
-146 108 -172 -10 -10 -41 -27 -68 -37 -71 -25 -75 -29 -75 -70 0 -31 12 -52
70 -125 48 -61 71 -100 75 -125 15 -97 25 -113 133 -224 l106 -109 -14 -47
c-31 -109 -30 -115 60 -242 182 -255 301 -394 466 -540 128 -114 244 -243 499
-555 99 -121 242 -296 319 -390 76 -93 148 -189 158 -213 13 -29 28 -111 43
-245 31 -259 52 -328 135 -437 l42 -55 -8 -110 c-15 -213 -10 -230 64 -226 29
1 53 -2 57 -9 4 -6 8 -57 10 -113 3 -93 8 -118 61 -277 51 -155 58 -187 62
-276 l4 -102 48 13 49 13 36 -36 c20 -20 50 -65 68 -101 28 -57 32 -77 35
-165 3 -84 0 -112 -18 -165 -36 -108 -77 -158 -233 -284 -156 -126 -284 -241
-589 -529 -271 -255 -486 -440 -583 -503 -44 -29 -147 -87 -230 -130 -82 -43
-187 -100 -232 -127 -46 -27 -120 -62 -165 -77 -195 -67 -495 -197 -716 -311
-213 -111 -288 -166 -280 -207 5 -27 82 -59 188 -77 134 -23 336 -35 695 -42
355 -7 467 -21 755 -98 91 -24 195 -49 231 -55 130 -22 427 -6 499 27 29 13
85 17 320 20 l285 4 116 64 c120 66 142 74 133 49 -9 -22 3 -19 109 25 94 39
169 52 182 30 3 -6 -8 -18 -25 -28 -59 -32 -76 -49 -63 -63 20 -20 149 -22
293 -5 74 9 148 16 163 16 41 0 29 -21 -21 -38 -34 -11 -42 -18 -42 -38 0 -44
33 -49 161 -25 63 12 125 24 139 27 24 5 24 5 6 -14 -10 -12 -16 -32 -14 -49
3 -27 7 -24 78 61 90 107 201 219 254 258 48 34 82 44 211 58 118 12 153 23
300 85 280 119 475 226 970 529 128 79 415 221 889 441 977 452 1381 681 1766
999 490 405 769 861 880 1439 17 86 90 224 152 288 64 65 187 130 302 159 44
11 147 27 230 35 268 28 348 47 514 125 189 90 293 171 421 329 171 211 284
283 541 345 475 114 569 142 794 240 222 96 386 212 360 254 -28 44 -148 35
-491 -39 -337 -71 -379 -75 -645 -60 -211 12 -226 14 -278 40 -30 15 -156 79
-280 143 -329 169 -491 216 -707 205 -171 -8 -262 -40 -527 -182 -344 -186
-550 -331 -951 -670 -140 -118 -223 -173 -380 -251 -337 -167 -700 -221 -1040
-153 -108 22 -288 87 -330 120 -54 43 -100 173 -132 368 -22 141 -25 877 -5
1146 24 310 7 384 -182 797 -127 279 -272 538 -511 913 -193 304 -298 502
-605 1150 -292 617 -396 793 -589 997 -237 250 -432 708 -471 1105 -6 59 -11
129 -13 155 l-2 47 -32 -20z"/>
</g>
</svg>
